<svg width="345" height="39" viewBox="0 0 345 39" fill="none" xmlns="http://www.w3.org/2000/svg">
<path d="M0 0.909119H7.01705V17.6705H7.25852L18.7074 0.909119H24.7585V30H17.7273V13.2103H17.5426L5.9517 30H0V0.909119Z" fill="#0541F0"/>
<path d="M29.1797 0.909119H36.1967V17.6705H36.4382L47.8871 0.909119H53.9382V30H46.907V13.2103H46.7223L35.1314 30H29.1797V0.909119Z" fill="#0541F0"/>
<path d="M58.9382 36.3353V25.7671H60.6712C61.1352 25.4072 61.5234 24.9195 61.8359 24.304C62.1484 23.679 62.4041 22.9451 62.603 22.1023C62.8113 21.25 62.9818 20.2983 63.1143 19.2472C63.2469 18.1866 63.3653 17.0455 63.4695 15.8239L64.0945 8.18185H79.8615V25.7671H83.2422V36.3353H78.2706V30H63.995V36.3353H58.9382ZM65.9553 25.7671H74.9467V12.3296H68.5547L68.2138 15.8239C68.0244 18.1345 67.7734 20.1137 67.4609 21.7614C67.1484 23.4091 66.6465 24.7443 65.9553 25.7671Z" fill="#282828"/>
<path d="M96.7401 30.4262C94.5526 30.4262 92.6634 29.9716 91.0724 29.0625C89.491 28.144 88.2741 26.8466 87.4219 25.1705C86.5696 23.4849 86.1435 21.501 86.1435 19.2188C86.1435 16.9745 86.5696 15.0048 87.4219 13.3097C88.2836 11.6051 89.4863 10.2794 91.0298 9.33241C92.5734 8.37598 94.3868 7.89776 96.4702 7.89776C97.8149 7.89776 99.0838 8.11556 100.277 8.55116C101.48 8.9773 102.54 9.64018 103.459 10.5398C104.387 11.4394 105.116 12.5853 105.646 13.9773C106.177 15.3599 106.442 17.0076 106.442 18.9205V20.4972H88.5582V17.0313H101.513C101.503 16.0464 101.29 15.1705 100.874 14.4034C100.457 13.6269 99.8745 13.0161 99.1264 12.5711C98.3878 12.126 97.526 11.9034 96.5412 11.9034C95.4901 11.9034 94.5668 12.1591 93.7713 12.6705C92.9759 13.1724 92.3556 13.8353 91.9105 14.6591C91.4749 15.4735 91.2524 16.3684 91.2429 17.3438V20.3693C91.2429 21.6383 91.4749 22.7273 91.9389 23.6364C92.4029 24.536 93.0516 25.2273 93.8849 25.7103C94.7183 26.1837 95.6937 26.4205 96.8111 26.4205C97.5592 26.4205 98.2363 26.3163 98.8423 26.108C99.4484 25.8902 99.974 25.5729 100.419 25.1563C100.864 24.7396 101.2 24.2235 101.428 23.608L106.229 24.1478C105.926 25.4167 105.348 26.5246 104.496 27.4716C103.653 28.4091 102.573 29.1383 101.257 29.6591C99.9408 30.1705 98.4351 30.4262 96.7401 30.4262Z" fill="#282828"/>
<path d="M125.778 16.9603V21.179H114.158V16.9603H125.778ZM115.749 8.18185V30H110.792V8.18185H115.749ZM129.144 8.18185V30H124.201V8.18185H129.144Z" fill="#282828"/>
<path d="M131.903 12.4006V8.18185H150.994V12.4006H143.935V30H138.963V12.4006H131.903Z" fill="#282828"/>
<path d="M160.046 23.0398L168.782 8.18185H174.066V30H169.094V15.1279L160.387 30H155.089V8.18185H160.046V23.0398Z" fill="#282828"/>
<path d="M189.247 37.4148V0.909119H194.403V37.4148H189.247ZM189.247 30.4262C187.647 30.4262 186.184 30.1563 184.858 29.6165C183.532 29.0767 182.386 28.3097 181.42 27.3154C180.464 26.3211 179.721 25.1373 179.19 23.7642C178.67 22.3817 178.409 20.8523 178.409 19.1762C178.409 17.5 178.67 15.9707 179.19 14.5881C179.721 13.2055 180.464 12.0171 181.42 11.0228C182.386 10.019 183.532 9.24719 184.858 8.70741C186.184 8.16764 187.647 7.89776 189.247 7.89776H190.341V30.4262H189.247ZM189.247 26.2784H189.886V12.0455H189.247C188.338 12.0455 187.533 12.2349 186.832 12.6137C186.141 12.983 185.559 13.4991 185.085 14.162C184.621 14.8154 184.266 15.5729 184.02 16.4347C183.783 17.287 183.665 18.2008 183.665 19.1762C183.665 20.4735 183.878 21.662 184.304 22.7415C184.73 23.8116 185.355 24.6686 186.179 25.3125C187.012 25.9565 188.035 26.2784 189.247 26.2784ZM194.403 30.4262H193.31V7.89776H194.403C196.004 7.89776 197.467 8.16764 198.793 8.70741C200.118 9.24719 201.259 10.019 202.216 11.0228C203.182 12.0171 203.925 13.2055 204.446 14.5881C204.976 15.9707 205.241 17.5 205.241 19.1762C205.241 20.8523 204.976 22.3817 204.446 23.7642C203.925 25.1373 203.182 26.3211 202.216 27.3154C201.259 28.3097 200.118 29.0767 198.793 29.6165C197.467 30.1563 196.004 30.4262 194.403 30.4262ZM194.403 26.2784C195.322 26.2784 196.127 26.0938 196.818 25.7245C197.509 25.3551 198.087 24.8438 198.551 24.1904C199.025 23.537 199.38 22.7841 199.616 21.9318C199.853 21.0701 199.972 20.1515 199.972 19.1762C199.972 17.8788 199.763 16.6904 199.347 15.6108C198.93 14.5313 198.305 13.6695 197.472 13.0256C196.648 12.3722 195.625 12.0455 194.403 12.0455H193.764V26.2784H194.403Z" fill="#282828"/>
<path d="M214.538 23.0398L223.274 8.18185H228.558V30H223.587V15.1279L214.879 30H209.581V8.18185H214.538V23.0398Z" fill="#282828"/>
<path d="M233.839 30V8.18185H238.981V16.9887H240.856L247.418 8.18185H253.612L245.529 18.8921L253.697 30H247.475L241.495 21.7756H238.981V30H233.839Z" fill="#282828"/>
<path d="M262.891 30.4404C261.508 30.4404 260.263 30.1942 259.155 29.7017C258.056 29.1998 257.185 28.4612 256.541 27.4858C255.907 26.5104 255.589 25.3078 255.589 23.8779C255.589 22.6468 255.817 21.6288 256.271 20.8239C256.726 20.019 257.346 19.375 258.132 18.8921C258.918 18.4091 259.804 18.0445 260.788 17.7983C261.783 17.5426 262.81 17.358 263.871 17.2443C265.149 17.1118 266.186 16.9934 266.982 16.8892C267.777 16.7756 268.355 16.6051 268.714 16.3779C269.084 16.1411 269.268 15.7765 269.268 15.2841V15.1989C269.268 14.1288 268.951 13.3002 268.317 12.7131C267.682 12.126 266.768 11.8324 265.575 11.8324C264.316 11.8324 263.317 12.107 262.578 12.6563C261.849 13.2055 261.357 13.8542 261.101 14.6023L256.3 13.9205C256.679 12.5947 257.304 11.4868 258.175 10.5966C259.046 9.697 260.111 9.02465 261.371 8.57957C262.63 8.12503 264.022 7.89776 265.547 7.89776C266.598 7.89776 267.644 8.02086 268.686 8.26707C269.728 8.51329 270.679 8.92048 271.541 9.48866C272.403 10.0474 273.094 10.8097 273.615 11.7756C274.145 12.7415 274.411 13.9489 274.411 15.3978V30H269.467V27.0029H269.297C268.984 27.6089 268.544 28.1771 267.976 28.7074C267.417 29.2282 266.712 29.6496 265.859 29.9716C265.017 30.2841 264.027 30.4404 262.891 30.4404ZM264.226 26.662C265.258 26.662 266.153 26.4584 266.911 26.0512C267.668 25.6345 268.25 25.0853 268.658 24.4034C269.074 23.7216 269.283 22.9782 269.283 22.1733V19.6023C269.122 19.7349 268.847 19.858 268.459 19.9716C268.08 20.0853 267.654 20.1847 267.18 20.2699C266.707 20.3551 266.238 20.4309 265.774 20.4972C265.31 20.5635 264.908 20.6203 264.567 20.6676C263.8 20.7718 263.113 20.9423 262.507 21.179C261.901 21.4157 261.423 21.7472 261.072 22.1733C260.722 22.59 260.547 23.1298 260.547 23.7926C260.547 24.7396 260.893 25.4546 261.584 25.9375C262.275 26.4205 263.156 26.662 264.226 26.662Z" fill="#282828"/>
<path d="M277.138 12.4006V8.18185H296.229V12.4006H289.169V30H284.197V12.4006H277.138Z" fill="#282828"/>
<path d="M308.942 30.4262C306.811 30.4262 304.964 29.9574 303.402 29.0199C301.839 28.0824 300.627 26.7709 299.766 25.0853C298.913 23.3997 298.487 21.43 298.487 19.1762C298.487 16.9224 298.913 14.9479 299.766 13.2529C300.627 11.5578 301.839 10.2415 303.402 9.30401C304.964 8.36651 306.811 7.89776 308.942 7.89776C311.072 7.89776 312.919 8.36651 314.482 9.30401C316.044 10.2415 317.251 11.5578 318.104 13.2529C318.965 14.9479 319.396 16.9224 319.396 19.1762C319.396 21.43 318.965 23.3997 318.104 25.0853C317.251 26.7709 316.044 28.0824 314.482 29.0199C312.919 29.9574 311.072 30.4262 308.942 30.4262ZM308.97 26.3068C310.125 26.3068 311.091 25.9896 311.868 25.3551C312.644 24.7112 313.222 23.8495 313.601 22.7699C313.989 21.6904 314.183 20.4877 314.183 19.162C314.183 17.8267 313.989 16.6193 313.601 15.5398C313.222 14.4508 312.644 13.5843 311.868 12.9404C311.091 12.2964 310.125 11.9745 308.97 11.9745C307.786 11.9745 306.802 12.2964 306.016 12.9404C305.239 13.5843 304.657 14.4508 304.268 15.5398C303.89 16.6193 303.7 17.8267 303.7 19.162C303.7 20.4877 303.89 21.6904 304.268 22.7699C304.657 23.8495 305.239 24.7112 306.016 25.3551C306.802 25.9896 307.786 26.3068 308.97 26.3068Z" fill="#282828"/>
<path d="M323.761 38.1818V8.18185H328.817V11.7898H329.116C329.381 11.2595 329.755 10.6961 330.238 10.0995C330.721 9.4934 331.374 8.9773 332.198 8.55116C333.022 8.11556 334.073 7.89776 335.352 7.89776C337.037 7.89776 338.557 8.32863 339.911 9.19037C341.275 10.0426 342.354 11.3068 343.15 12.983C343.955 14.6496 344.357 16.6951 344.357 19.1193C344.357 21.5152 343.964 23.5512 343.178 25.2273C342.392 26.9034 341.322 28.1818 339.968 29.0625C338.614 29.9432 337.08 30.3836 335.366 30.3836C334.116 30.3836 333.079 30.1752 332.255 29.7586C331.431 29.3419 330.768 28.84 330.266 28.2529C329.774 27.6563 329.39 27.0928 329.116 26.5625H328.903V38.1818H323.761ZM328.803 19.0909C328.803 20.5019 329.002 21.7377 329.4 22.7983C329.807 23.8589 330.389 24.6875 331.147 25.2841C331.914 25.8712 332.842 26.1648 333.931 26.1648C335.067 26.1648 336.019 25.8618 336.786 25.2557C337.553 24.6402 338.131 23.8021 338.519 22.7415C338.917 21.6714 339.116 20.4546 339.116 19.0909C339.116 17.7368 338.922 16.5341 338.533 15.483C338.145 14.4318 337.567 13.608 336.8 13.0114C336.033 12.4148 335.077 12.1165 333.931 12.1165C332.833 12.1165 331.9 12.4053 331.133 12.983C330.366 13.5606 329.783 14.3703 329.386 15.412C328.997 16.4536 328.803 17.68 328.803 19.0909Z" fill="#282828"/>
</svg>
