<svg width="33" height="32" viewBox="0 0 33 32" fill="none" xmlns="http://www.w3.org/2000/svg">
<path fill-rule="evenodd" clip-rule="evenodd" d="M5.11925 27.3807C7.07187 29.3333 10.2146 29.3333 16.5 29.3333C22.7853 29.3333 25.9281 29.3333 27.8806 27.3807C29.8333 25.4281 29.8333 22.2853 29.8333 16C29.8333 9.7146 29.8333 6.5719 27.8806 4.61929C25.9281 2.66666 22.7853 2.66666 16.5 2.66666C10.2146 2.66666 7.07187 2.66666 5.11925 4.61929C3.16663 6.5719 3.16663 9.7146 3.16663 16C3.16663 22.2853 3.16663 25.4281 5.11925 27.3807ZM23.0797 10.928L18.3969 23.1491C17.9726 24.2563 16.42 24.2923 16.0889 23.2025L14.6802 18.5665C14.5706 18.206 14.294 17.9293 13.9334 17.8197L9.29743 16.4111C8.20768 16.08 8.24368 14.5273 9.35095 14.1031L21.572 9.42028C22.5518 9.04481 23.4552 9.94809 23.0797 10.928Z" fill="white"/>
</svg>
