<svg width="32" height="32" viewBox="0 0 32 32" fill="none" xmlns="http://www.w3.org/2000/svg">
<g clip-path="url(#clip0_1_19)">
<path fill-rule="evenodd" clip-rule="evenodd" d="M22.535 16.54C22.145 16.93 21.512 16.93 21.121 16.54L17 12.41V23C17 23.55 16.553 24 16 24C15.447 24 15 23.55 15 23V12.41L10.879 16.54C10.488 16.93 9.854 16.93 9.465 16.54C9.074 16.14 9.074 15.51 9.465 15.12L15.121 9.45996C15.361 9.21996 15.689 9.14996 16 9.20996C16.311 9.14996 16.639 9.21996 16.879 9.45996L22.535 15.12C22.926 15.51 22.926 16.14 22.535 16.54ZM16 0C7.163 0 0 7.16 0 16C0 24.84 7.163 32 16 32C24.837 32 32 24.84 32 16C32 7.16 24.837 0 16 0Z" fill="#0541F0"/>
</g>
<defs>
<clipPath id="clip0_1_19">
<rect width="32" height="32" fill="white"/>
</clipPath>
</defs>
</svg>
